<svg width="48" height="48" viewBox="0 0 48 48" fill="none" xmlns="http://www.w3.org/2000/svg">
<g clip-path="url(#clip0)">
<path d="M39.5555 34.2945L37.5746 33.1077C36.9708 32.7465 36.28 32.5559 35.5763 32.5555H32.595C31.9847 32.5543 31.3771 32.633 30.7869 32.7887L21.8045 35.1999C20.8224 35.471 20.0336 36.2025 19.6895 37.1614L11.7887 32.887C11.148 32.5224 10.398 32.3986 9.67414 32.5376C9.40108 32.5859 9.13638 32.6728 8.88763 32.7959C8.32594 33.0648 7.85996 33.4992 7.55158 34.0404C7.28194 34.5117 7.14029 35.0453 7.14029 35.588C7.13193 36.6962 7.71906 37.7231 8.67761 38.2783L22.8379 46.7507C23.4531 47.1316 24.1618 47.3333 24.8852 47.3333H35.844C36.3335 47.3337 36.8185 47.241 37.2735 47.061L39.5555 46.1598V47.3333H47.3333V31.7777H39.5555V34.2945ZM36.7019 45.6144C36.4296 45.7219 36.1391 45.7773 35.8463 45.7777H24.8852C24.447 45.7773 24.0175 45.6539 23.646 45.4215L9.4664 36.9392C8.98447 36.6609 8.68939 36.1451 8.69318 35.5887C8.69432 35.3161 8.7661 35.0479 8.90168 34.811C9.05663 34.5425 9.28981 34.3271 9.5697 34.1942C9.69313 34.1342 9.82377 34.0917 9.95859 34.0681C10.057 34.0499 10.1568 34.0404 10.2567 34.0404C10.5241 34.0396 10.7869 34.1095 11.0189 34.2424L19.5863 38.8719C19.5961 38.9194 19.5961 38.9661 19.6087 39.0136C19.977 40.3713 21.2086 41.3142 22.6157 41.3157C23.0487 41.2763 23.4774 41.1995 23.8974 41.0871L31.9783 38.9247L31.5772 37.4219L23.5226 39.5749C23.1679 39.6565 22.7103 39.7499 22.6157 39.7579C21.9131 39.7591 21.2971 39.2897 21.1122 38.6121C21.0871 38.5179 21.0723 38.4215 21.067 38.3243C21.067 38.3243 21.0609 38.1359 21.067 38.0698C21.1262 37.4193 21.582 36.8731 22.2113 36.6981L31.1899 34.296C31.6483 34.1733 32.1207 34.111 32.595 34.111H35.5763C35.9986 34.111 36.4129 34.2257 36.7748 34.4426L39.5555 36.1075V44.4865L36.7019 45.6144ZM41.1111 33.3333H45.7778V45.7777H41.1111V33.3333Z" fill="#E1CFC6"/>
<path d="M32.7454 6.88863L28.5732 2.71681C27.2634 1.39937 25.4811 0.661094 23.6236 0.66641H13.8452C13.2417 0.66717 12.6466 0.808066 12.1062 1.07695L10.3631 1.94891C10.0137 2.12474 9.62553 2.20867 9.23475 2.1931L8.44443 2.16538V0.66641H0.666656V17.7775H8.44443V15.4442H9.76681L10.2373 15.7552C11.554 16.6295 13.0872 17.1232 14.6667 17.1809V27.1109H47.3333V6.88863H32.7454ZM6.88888 16.222H2.22221V2.22197H6.88888V16.222ZM11.0983 14.461L10.2332 13.8886H8.44443V3.72169L9.17778 3.7479C9.82909 3.77107 10.4755 3.63093 11.0584 3.3404L12.8001 2.46844C13.1244 2.30628 13.4825 2.22197 13.8452 2.22197H23.6236C25.0683 2.21779 26.4549 2.79201 27.4734 3.81626L30.5458 6.88863H24.1276L22.2397 5.00115L21.1403 6.1006L26.6345 11.5952C27.2448 12.2028 27.2467 13.1902 26.639 13.8009C26.031 14.4112 25.0436 14.4131 24.4333 13.8055L19.8445 9.21665L19.2999 9.68339C17.7964 10.9602 15.5986 10.9929 14.0575 9.76087L13.6067 9.39552L12.6265 10.604L13.0822 10.9735C13.5589 11.3544 14.094 11.6559 14.6667 11.8663V15.6246C13.3937 15.568 12.1598 15.1658 11.0983 14.461ZM22.1623 13.7329L23.3358 14.9068C24.5541 16.1069 26.5099 16.1088 27.7301 14.9106C26.5885 16.6785 27.0389 19.0312 28.7529 20.2521C30.4668 21.4731 32.8377 21.1302 34.1354 19.474C35.4331 17.8174 35.1988 15.4332 33.603 14.0614C32.0075 12.6897 29.615 12.8154 28.1722 14.3466C28.7035 13.5123 28.7984 12.4725 28.427 11.5553H38.8423C39.1769 13.5123 40.7097 15.045 42.6667 15.3796V18.6199C40.7097 18.9544 39.1769 20.4872 38.8423 22.4442H23.1576C22.8231 20.4872 21.2903 18.9544 19.3333 18.6199V15.3796C20.4449 15.1924 21.4502 14.6072 22.1623 13.7329ZM28.6667 16.9997C28.6667 15.7112 29.7114 14.6664 31 14.6664C32.2886 14.6664 33.3333 15.7112 33.3333 16.9997C33.3333 18.2883 32.2886 19.3331 31 19.3331C29.7114 19.3331 28.6667 18.2883 28.6667 16.9997ZM45.7778 25.5553H16.2222V12.1922C17.4553 12.2848 18.6847 11.9704 19.7222 11.2978L21.0491 12.6247C20.4654 13.4177 19.5403 13.8867 18.5555 13.8886H17.7778V20.1109H18.5555C20.2736 20.1109 21.6667 21.5039 21.6667 23.222V23.9997H40.3333V23.222C40.3333 21.5039 41.7263 20.1109 43.4444 20.1109H44.2222V13.8886H43.4444C41.7263 13.8886 40.3333 12.4956 40.3333 10.7775V9.99974H27.2387L25.6831 8.44419H45.7778V25.5553Z" fill="#E1CFC6"/>
</g>
<defs>
<clipPath id="clip0">
<rect width="46.6667" height="46.6667" fill="white" transform="translate(0.666656 0.666626)"/>
</clipPath>
</defs>
</svg>
