<svg width="54" height="56" viewBox="0 0 54 56" fill="none" xmlns="http://www.w3.org/2000/svg">
<g clip-path="url(#clip0)">
<path d="M27.2495 29.169C27.2601 29.166 27.2702 29.1634 27.2808 29.1604C27.3178 29.1493 27.3545 29.1369 27.3899 29.1216C27.3927 29.1207 27.3955 29.1199 27.3984 29.1186C27.4379 29.1015 27.4757 29.0814 27.5127 29.0596C27.5152 29.0579 27.518 29.0566 27.5209 29.0553L36.5415 23.5866C36.8637 23.3913 37.0623 23.0303 37.0623 22.6394V11.7027C37.0623 11.6997 37.0619 11.6963 37.0615 11.6933C37.0611 11.6489 37.0586 11.604 37.0534 11.5592C37.053 11.557 37.0521 11.5545 37.0517 11.5519C37.0464 11.5117 37.0387 11.4716 37.0289 11.4314C37.0261 11.4207 37.0232 11.4105 37.0204 11.3998C37.0114 11.3678 37.0013 11.3357 36.9895 11.3041C36.9854 11.2938 36.9817 11.2832 36.9777 11.2729C36.9618 11.2332 36.9435 11.1943 36.9227 11.1558C36.902 11.1178 36.8784 11.0824 36.854 11.0478C36.8475 11.0384 36.8401 11.0298 36.8332 11.0208C36.8133 10.9948 36.7929 10.9696 36.771 10.9456C36.7636 10.9375 36.7559 10.929 36.7482 10.9213C36.7209 10.8931 36.6924 10.8666 36.6627 10.8422C36.6599 10.8401 36.6574 10.8375 36.655 10.8354C36.6212 10.8081 36.5858 10.7837 36.5496 10.7615C36.5468 10.7594 36.5443 10.7572 36.5415 10.7555L27.5209 5.28719C27.1986 5.09193 26.8019 5.09193 26.4796 5.28719L17.4586 10.7555C17.4562 10.7572 17.4537 10.7594 17.4513 10.7611C17.4147 10.7837 17.3793 10.8081 17.3451 10.8354C17.343 10.8371 17.341 10.8393 17.3394 10.8405C17.3089 10.8657 17.28 10.8927 17.2519 10.9213C17.2442 10.929 17.2373 10.9371 17.2299 10.9452C17.208 10.9691 17.1868 10.9948 17.1665 11.0213C17.1599 11.0298 17.153 11.0384 17.1465 11.0473C17.1221 11.0819 17.0985 11.1178 17.0777 11.1558C17.0566 11.1943 17.0387 11.2336 17.0224 11.2729C17.0183 11.2832 17.0147 11.2938 17.011 11.3041C16.9992 11.3357 16.9886 11.3678 16.9797 11.3998C16.9768 11.4105 16.974 11.4207 16.9711 11.4314C16.9618 11.4716 16.9536 11.5113 16.9484 11.5519C16.9479 11.5545 16.9475 11.557 16.9471 11.5596C16.9414 11.604 16.939 11.6489 16.9386 11.6933C16.9386 11.6967 16.9382 11.6997 16.9382 11.7027V22.6394C16.9382 23.0303 17.1363 23.3913 17.4586 23.5866L26.4796 29.0553C26.4821 29.0566 26.4849 29.0579 26.4878 29.0596C26.5244 29.0814 26.5626 29.1015 26.6021 29.1186C26.6045 29.1199 26.6074 29.1203 26.6102 29.1216C26.6456 29.1369 26.6823 29.1493 26.7197 29.1604C26.7299 29.1634 26.7404 29.166 26.7506 29.169C26.7815 29.1767 26.8125 29.1831 26.8442 29.1882C26.8552 29.1899 26.8658 29.1921 26.8767 29.1933C26.917 29.1985 26.9585 29.2019 27.0004 29.2019C27.0424 29.2019 27.0835 29.1985 27.1241 29.1933C27.1347 29.1921 27.1457 29.1899 27.1563 29.1882C27.1876 29.1831 27.219 29.1767 27.2495 29.169ZM33.9373 11.7027L27 15.9081L24.5729 14.4371L31.5101 10.2313L33.9373 11.7027ZM28.0417 26.2137V17.8025L34.979 13.5971V22.0083L28.0417 26.2137ZM27 7.49733L29.4272 8.96834L22.4895 13.1742L20.0624 11.7027L27 7.49733ZM19.0211 13.5971L25.9584 17.8025V26.2137L19.0211 22.0083V13.5971Z" fill="#E1CFC6"/>
<path d="M51.3295 17.4688C49.931 17.1646 48.2171 17.9046 47.7972 19.8802L46.3425 26.7221C45.2777 26.3624 44.0614 26.6764 43.2842 27.6194L41.3848 29.9231C40.0087 31.5928 40.0087 31.5928 38.5711 31.9939C38.2358 32.0879 37.8183 32.2046 37.3109 32.3605C31.4483 34.1648 29.1477 39.8228 28.8995 44.4687C28.1076 44.8686 27.5595 45.7188 27.5595 46.7015V48.5997C27.5595 49.9648 28.6175 51.0756 29.9175 51.0756H39.4699C40.77 51.0756 41.8279 49.9648 41.8279 48.5997V46.7015C41.8279 46.2341 41.7038 45.7961 41.4882 45.4227L45.7704 43.0075C45.7749 43.0054 45.7794 43.0024 45.7838 43.0002C49.522 40.8187 50.1637 39.8373 51.0634 34.9236C51.172 34.3306 50.8022 33.7572 50.237 33.6431C49.6714 33.529 49.1261 33.9174 49.0175 34.5109C48.2049 38.9491 47.8403 39.2973 44.7784 41.0845L39.2083 44.2256H31.0039C31.3075 40.3928 33.2293 35.896 37.8973 34.4596C38.379 34.3113 38.766 34.2032 39.107 34.108C40.9315 33.5983 41.264 33.412 42.9599 31.3548L44.8594 29.0511C44.9965 28.8844 45.1894 28.784 45.4022 28.7678C45.615 28.7516 45.8196 28.8225 45.9783 28.9665C46.3873 29.3378 46.1716 29.9487 45.9796 30.2512C44.9908 31.8102 44.0167 33.2966 43.0743 34.7343C42.5929 35.4687 42.1116 36.2036 41.6261 36.9509C41.3018 37.4499 41.4243 38.1301 41.8996 38.4706C42.3744 38.8111 43.0226 38.6825 43.3469 38.1835C43.8307 37.4388 44.3104 36.7065 44.7906 35.9742C45.737 34.5301 46.7156 33.0364 47.7134 31.4637C48.3184 30.5101 48.4389 29.3971 48.1064 28.4666L49.8301 20.357C50.0197 19.4645 50.759 19.5782 50.9055 19.6106C51.1501 19.664 51.7039 19.8742 51.5574 20.6719L50.3769 27.1037C50.2679 27.6967 50.6378 28.2705 51.2025 28.3846C51.7673 28.4991 52.3138 28.1107 52.4224 27.5177L53.6029 21.0855C53.9642 19.1159 52.7329 17.7752 51.3295 17.4688ZM39.7446 48.5997C39.7446 48.7561 39.6189 48.8881 39.4699 48.8881H29.9175C29.7686 48.8881 29.6429 48.7561 29.6429 48.5997V46.7015C29.6429 46.5451 29.7686 46.4131 29.9175 46.4131H39.4679H39.4708H39.4716C39.6197 46.4144 39.7446 46.546 39.7446 46.7015V48.5997Z" fill="#E1CFC6"/>
<path d="M51.0296 29.3219C50.4644 29.2078 49.9188 29.5966 49.8105 30.19L49.8052 30.2187C49.6966 30.8121 50.0669 31.3855 50.6317 31.4991C50.698 31.5124 50.7643 31.5188 50.8294 31.5188C51.3189 31.5188 51.7555 31.1548 51.8512 30.6314L51.8564 30.6023C51.9647 30.0089 51.5944 29.4355 51.0296 29.3219Z" fill="#E1CFC6"/>
<path d="M25.1007 44.4686C24.8525 39.8227 22.5518 34.1643 16.6888 32.3604C16.1818 32.2045 15.7643 32.0878 15.4286 31.9939C13.9914 31.5922 13.9914 31.5922 12.6149 29.923L10.7159 27.6193C9.93829 26.6763 8.72247 26.3623 7.6572 26.7216L6.20294 19.8801C5.78301 17.905 4.06996 17.1628 2.67062 17.4687C1.26722 17.7751 0.0355298 19.1158 0.397265 21.0854C0.505908 21.6784 1.05197 22.0668 1.61716 21.9527C2.18194 21.8382 2.5514 21.2648 2.44276 20.6718C2.29628 19.8741 2.84966 19.6635 3.09462 19.6101C3.24029 19.5781 3.98003 19.464 4.16965 20.3565L5.89369 28.4665C5.56125 29.3966 5.6817 30.51 6.28676 31.4636C7.28448 33.0363 8.26308 34.5296 9.20953 35.9741C9.68968 36.7064 10.1694 37.4387 10.6532 38.1834C10.9775 38.6824 11.6257 38.8106 12.1006 38.4705C12.5758 38.13 12.6983 37.4494 12.374 36.9508C11.8886 36.2035 11.4072 35.4687 10.9258 34.7342C9.98346 33.2965 9.00974 31.8097 8.02057 30.2511C7.82851 29.9486 7.61326 29.3377 8.02179 28.9664C8.18048 28.822 8.38434 28.7515 8.59796 28.7677C8.81077 28.7835 9.00364 28.8844 9.14077 29.051L11.0398 31.3547C12.7361 33.4119 13.0686 33.5982 14.8931 34.1079C15.2341 34.2031 15.6207 34.3112 16.1029 34.4595C20.7708 35.8959 22.6926 40.3927 22.9962 44.2255H14.7918L9.22174 41.0844C6.15981 39.2972 5.79522 38.949 4.98223 34.5099L3.80181 28.0781C3.69317 27.4851 3.14711 27.0972 2.58192 27.2113C2.01714 27.3258 1.64767 27.8991 1.75632 28.4921L2.93674 34.9235C3.8364 39.8372 4.47767 40.8182 8.21629 43.0002C8.22076 43.0027 8.22524 43.0053 8.22931 43.0078L12.5115 45.4226C12.2963 45.7961 12.1722 46.234 12.1722 46.7014V48.5997C12.1722 49.9647 13.2297 51.0755 14.5302 51.0755H24.0826C25.3827 51.0755 26.4406 49.9647 26.4406 48.5997V46.7014C26.4402 45.7187 25.8925 44.8685 25.1007 44.4686ZM24.3569 48.5997C24.3569 48.756 24.2311 48.888 24.0822 48.888H14.5298C14.3808 48.888 14.2551 48.756 14.2551 48.5997V46.7014C14.2551 46.5454 14.38 46.4143 14.5281 46.413H14.529H14.5318H24.0822C24.2311 46.413 24.3569 46.545 24.3569 46.7014V48.5997Z" fill="#E1CFC6"/>
<path d="M2.40895 26.2739C2.97413 26.1602 3.34401 25.5869 3.23577 24.9939L3.23048 24.9648C3.12224 24.3718 2.577 23.9826 2.011 24.0966C1.44622 24.2103 1.07594 24.7836 1.18458 25.3771L1.18987 25.4057C1.28549 25.9295 1.7221 26.2935 2.2116 26.2935C2.2767 26.2935 2.34262 26.2871 2.40895 26.2739Z" fill="#E1CFC6"/>
</g>
<defs>
<clipPath id="clip0">
<rect width="53.3333" height="56" fill="white" transform="translate(0.333336)"/>
</clipPath>
</defs>
</svg>
