<svg width="20" height="20" viewBox="0 0 20 20" fill="none" xmlns="http://www.w3.org/2000/svg">
<g clip-path="url(#clip0)">
<path d="M17.063 2.93701C15.1691 1.04309 12.6607 0 10 0C4.49341 0 0 4.49402 0 10C0 11.6293 0.400085 13.2378 1.15921 14.6677L0.0172424 19.2731C-0.0321961 19.4724 0.0263977 19.6831 0.171661 19.8283C0.31601 19.9728 0.526428 20.0325 0.726929 19.9828L5.33234 18.8406C6.76224 19.5998 8.37067 20 10 20C12.6607 20 15.1691 18.9569 17.063 17.063C18.9569 15.1689 20 12.6607 20 10C20 7.33932 18.9569 4.83093 17.063 2.93701ZM10 18.8281C8.49243 18.8281 7.00562 18.4401 5.69992 17.7063C5.56992 17.6332 5.41687 17.6125 5.27176 17.6483L1.3887 18.6113L2.35153 14.7281C2.38754 14.5833 2.36679 14.4301 2.2937 14.2999C1.55975 12.9944 1.17188 11.5076 1.17188 10C1.17188 5.13214 5.13214 1.17188 10 1.17188C14.8679 1.17188 18.8281 5.13214 18.8281 10C18.8281 14.8679 14.8679 18.8281 10 18.8281Z" fill="#E1CFC6"/>
<path d="M15.2877 11.7791C14.8994 11.3906 14.4718 10.9985 13.9779 10.7603C13.2398 10.4046 12.5356 10.5065 11.9949 11.0473C11.7487 11.2934 11.4102 11.7787 11.2153 12.0173C10.7127 11.9332 9.7085 11.0865 9.30978 10.6892C8.9126 10.2905 8.0665 9.28614 7.98242 8.78458C8.2197 8.59079 8.7066 8.25083 8.95257 8.00501C9.49335 7.46424 9.59527 6.75989 9.23959 6.02198C9.0014 5.5279 8.60925 5.1005 8.22107 4.71231C7.43036 3.90497 6.21072 3.84546 5.15802 4.89832C4.37128 5.68491 3.67044 7.14319 4.79837 9.62351C5.46579 11.0908 6.54138 12.3886 7.07162 12.9241L7.07574 12.9283C7.61133 13.4587 8.90909 14.5342 10.3764 15.2015C12.0335 15.9551 13.8096 16.134 15.1017 14.842C16.1703 13.7733 16.0803 12.5552 15.2877 11.7791ZM14.273 14.0133C13.5099 14.7764 12.3622 14.8173 10.8614 14.1348C9.54401 13.5356 8.35107 12.5414 7.90231 12.0976C7.45843 11.6487 6.46432 10.4559 5.86511 9.13843C5.18259 7.63773 5.22348 6.48996 5.98657 5.72687C6.43198 5.28147 6.94467 5.08387 7.38382 5.53232L7.39221 5.54087C8.4324 6.58106 8.35855 6.94162 8.12387 7.1763C7.91559 7.38459 7.2999 7.80268 7.10092 8.00165C6.63385 8.46857 6.72082 9.19184 7.35925 10.1512C7.74026 10.7238 8.2435 11.2795 8.48093 11.5176L8.48215 11.519C8.72034 11.7564 9.27591 12.2596 9.84857 12.6406C10.808 13.2791 11.5312 13.3659 11.9981 12.899C12.1972 12.6998 12.6151 12.0843 12.8234 11.876C12.9821 11.7173 13.1385 11.6567 13.4689 11.816C13.8519 12.0007 14.2619 12.4107 14.459 12.6077L14.4676 12.6161C14.9195 13.0587 14.7186 13.5678 14.273 14.0133Z" fill="#E1CFC6"/>
</g>
<defs>
<clipPath id="clip0">
<rect width="20" height="20" fill="white"/>
</clipPath>
</defs>
</svg>
