<svg width="20" height="20" viewBox="0 0 20 20" fill="none" xmlns="http://www.w3.org/2000/svg">
<path d="M15.9814 2.47758C14.3838 0.879884 12.2595 0 10 0C7.74057 0 5.61627 0.879884 4.01861 2.47758C2.42092 4.07532 1.54103 6.19954 1.54103 8.45896C1.54103 13.0298 5.86284 16.8315 8.18468 18.8739C8.50733 19.1578 8.78597 19.4029 9.00796 19.6102C9.28609 19.87 9.64308 20 9.99999 20C10.357 20 10.7139 19.87 10.9921 19.6102C11.2141 19.4028 11.4927 19.1578 11.8153 18.8739C14.1372 16.8315 18.459 13.0298 18.459 8.45896C18.459 6.19954 17.5791 4.07532 15.9814 2.47758ZM11.0415 17.9943C10.7118 18.2844 10.4271 18.5349 10.1923 18.7541C10.0844 18.8548 9.91554 18.8548 9.80765 18.7541C9.57292 18.5348 9.28816 18.2843 8.95843 17.9943C6.77561 16.0742 2.71252 12.5 2.71252 8.459C2.71252 4.44071 5.98163 1.1716 9.99995 1.1716C14.0182 1.1716 17.2874 4.44071 17.2874 8.459C17.2874 12.5 13.2243 16.0742 11.0415 17.9943Z" fill="#E1CFC6"/>
<path d="M9.99999 4.41162C7.94448 4.41162 6.27221 6.08385 6.27221 8.13937C6.27221 10.1949 7.94448 11.8671 9.99999 11.8671C12.0555 11.8671 13.7277 10.1949 13.7277 8.13937C13.7277 6.08385 12.0555 4.41162 9.99999 4.41162ZM9.99999 10.6955C8.5905 10.6955 7.44377 9.54879 7.44377 8.13933C7.44377 6.72987 8.5905 5.58315 9.99999 5.58315C11.4095 5.58315 12.5562 6.72987 12.5562 8.13933C12.5562 9.54879 11.4095 10.6955 9.99999 10.6955Z" fill="#E1CFC6"/>
</svg>
