<svg width="51" height="48" viewBox="0 0 51 48" fill="none" xmlns="http://www.w3.org/2000/svg">
<path d="M44.8333 31.7777H43.7083L41.9167 28.0133C41.458 27.0505 40.7101 26.2324 39.7635 25.6582C38.8169 25.0839 37.7123 24.7781 36.5833 24.7777H32.3333V16.2222C32.3333 16.0159 32.2456 15.8181 32.0893 15.6722C31.933 15.5264 31.721 15.4444 31.5 15.4444H27.0417C25.4805 13.1328 23.1011 11.4046 20.3167 10.56C21.4 9.03559 22.3333 7.3556 22.3333 6.11116C22.3333 4.66721 21.7188 3.2824 20.6248 2.26138C19.5308 1.24035 18.0471 0.666748 16.5 0.666748C14.9529 0.666748 13.4692 1.24035 12.3752 2.26138C11.2813 3.2824 10.6667 4.66721 10.6667 6.11116C10.6667 7.3556 11.6 9.03559 12.6834 10.56C9.89896 11.4046 7.51952 13.1328 5.95835 15.4444H1.50002C1.27901 15.4444 1.06704 15.5264 0.910765 15.6722C0.754484 15.8181 0.666687 16.0159 0.666687 16.2222V41.111C0.666687 41.3172 0.754484 41.5151 0.910765 41.6609C1.06704 41.8068 1.27901 41.8887 1.50002 41.8887H2.33335V42.6665C2.33533 43.2848 2.59936 43.8772 3.06777 44.3144C3.53618 44.7515 4.17092 44.998 4.83335 44.9998H9.67502C10.1127 45.7092 10.7429 46.2984 11.5022 46.708C12.2614 47.1177 13.123 47.3334 14 47.3334C14.877 47.3334 15.7386 47.1177 16.4979 46.708C17.2572 46.2984 17.8874 45.7092 18.325 44.9998H36.3417C36.7793 45.7092 37.4095 46.2984 38.1688 46.708C38.9281 47.1177 39.7897 47.3334 40.6667 47.3334C41.5437 47.3334 42.4053 47.1177 43.1645 46.708C43.9238 46.2984 44.554 45.7092 44.9917 44.9998H48.1667C48.8291 44.998 49.4638 44.7515 49.9323 44.3144C50.4007 43.8772 50.6647 43.2848 50.6667 42.6665V37.2221C50.6649 35.7786 50.0498 34.3948 48.9562 33.3741C47.8626 32.3535 46.3799 31.7793 44.8333 31.7777ZM35.6667 26.3333H36.5833C37.3895 26.3332 38.1784 26.5514 38.8544 26.9614C39.5304 27.3714 40.0644 27.9556 40.3917 28.6433L41.8833 31.7777H36.5C36.279 31.7777 36.067 31.6957 35.9108 31.5499C35.7545 31.404 35.6667 31.2062 35.6667 30.9999V26.3333ZM27.3 20.8889H23.15C23.1048 19.5802 22.929 18.2782 22.625 17H26.0833C26.7699 18.2049 27.184 19.5285 27.3 20.8889ZM17.3334 26.3333V22.4444H21.4834C21.438 23.7554 21.2481 25.0586 20.9167 26.3333H17.3334ZM20.4083 27.8888C19.6167 29.8566 18.4917 31.1788 17.3334 31.6143V27.8888H20.4083ZM17.3334 20.8889V17H20.9167C21.2494 18.2744 21.4394 19.5777 21.4834 20.8889H17.3334ZM22.1583 27.8888H25.025C23.8375 29.2986 22.2743 30.3928 20.4917 31.0621C21.2175 30.09 21.7796 29.0198 22.1583 27.8888ZM22.625 26.3333C22.9277 25.055 23.1007 23.753 23.1417 22.4444H27.2917C27.1786 23.8023 26.7733 25.1249 26.1 26.3333H22.625ZM25.0167 15.4444H22.1667C21.7862 14.3141 21.2243 13.2442 20.5 12.2711C22.2798 12.9374 23.8384 14.0324 25.0167 15.4444ZM20.4 15.4444H17.3334V14.1844C17.6167 13.8811 18.1167 13.3367 18.6917 12.6522C19.4492 13.4711 20.0294 14.4194 20.4 15.4444ZM12.3334 6.11116C12.3334 5.07977 12.7723 4.09062 13.5537 3.36132C14.3351 2.63201 15.3949 2.22229 16.5 2.22229C17.6051 2.22229 18.6649 2.63201 19.4463 3.36132C20.2277 4.09062 20.6667 5.07977 20.6667 6.11116C20.6667 7.13004 19.5667 8.90337 18.2833 10.5678C18.2788 10.572 18.2759 10.5775 18.275 10.5834C17.6917 11.3378 17.0667 12.0767 16.5 12.7067C15.9334 12.0767 15.3084 11.3378 14.725 10.5834C14.7241 10.5775 14.7212 10.572 14.7167 10.5678C13.4334 8.90337 12.3334 7.13004 12.3334 6.11116ZM14.3084 12.6522C14.8834 13.3367 15.3834 13.8811 15.6667 14.1844V15.4444H12.6C12.9707 14.4194 13.5508 13.4711 14.3084 12.6522ZM12.0834 26.3333C11.7519 25.0586 11.562 23.7554 11.5167 22.4444H15.6667V26.3333H12.0834ZM15.6667 27.8888V31.6143C14.5084 31.1788 13.3834 29.8566 12.5917 27.8888H15.6667ZM10.8417 27.8888C11.2204 29.0198 11.7825 30.09 12.5084 31.0621C10.7258 30.3928 9.16259 29.2986 7.97502 27.8888H10.8417ZM6.90002 26.3333C6.2267 25.1249 5.8214 23.8023 5.70835 22.4444H9.85835C9.89938 23.753 10.0724 25.055 10.375 26.3333H6.90002ZM11.5167 20.8889C11.5607 19.5777 11.7506 18.2744 12.0834 17H15.6667V20.8889H11.5167ZM12.5 12.2711C11.7758 13.2442 11.2138 14.3141 10.8334 15.4444H7.98335C9.16167 14.0324 10.7202 12.9374 12.5 12.2711ZM6.91669 17H10.375C10.071 18.2782 9.89528 19.5802 9.85002 20.8889H5.70002C5.81601 19.5285 6.23012 18.2049 6.91669 17ZM2.33335 17H5.06669C4.36608 18.469 4.00274 20.0586 4.00002 21.6666C4.00002 24.7608 5.31698 27.7282 7.66118 29.9162C10.0054 32.1041 13.1848 33.3332 16.5 33.3332C19.8152 33.3332 22.9946 32.1041 25.3389 29.9162C27.6831 27.7282 29 24.7608 29 21.6666C28.9973 20.0586 28.634 18.469 27.9333 17H30.6667V34.8888H2.33335V17ZM9.07502 43.4443H4.83335C4.61234 43.4443 4.40038 43.3623 4.2441 43.2165C4.08782 43.0706 4.00002 42.8728 4.00002 42.6665V41.8887H9.07502C8.97501 42.403 8.97501 42.93 9.07502 43.4443ZM14 45.7776C13.3407 45.7776 12.6963 45.5951 12.1481 45.2533C11.6 44.9114 11.1727 44.4255 10.9204 43.8571C10.6681 43.2886 10.6021 42.6631 10.7307 42.0596C10.8594 41.4561 11.1768 40.9017 11.643 40.4666C12.1092 40.0315 12.7031 39.7352 13.3497 39.6152C13.9963 39.4951 14.6665 39.5568 15.2756 39.7922C15.8847 40.0277 16.4053 40.4265 16.7716 40.9381C17.1379 41.4497 17.3334 42.0512 17.3334 42.6665C17.3334 43.4916 16.9822 44.2829 16.357 44.8664C15.7319 45.4498 14.8841 45.7776 14 45.7776ZM14 37.9999C13.1232 38.0007 12.262 38.2167 11.5029 38.6263C10.7438 39.0358 10.1134 39.6245 9.67502 40.3332H2.33335V36.4443H30.6667V40.3332H18.325C17.8866 39.6245 17.2562 39.0358 16.4971 38.6263C15.738 38.2167 14.8768 38.0007 14 37.9999ZM35.7417 43.4443H18.925C19.025 42.93 19.025 42.403 18.925 41.8887H35.7417C35.6417 42.403 35.6417 42.93 35.7417 43.4443ZM40.6667 45.7776C40.0074 45.7776 39.3629 45.5951 38.8148 45.2533C38.2666 44.9114 37.8394 44.4255 37.5871 43.8571C37.3348 43.2886 37.2688 42.6631 37.3974 42.0596C37.526 41.4561 37.8435 40.9017 38.3097 40.4666C38.7758 40.0315 39.3698 39.7352 40.0164 39.6152C40.663 39.4951 41.3332 39.5568 41.9423 39.7922C42.5514 40.0277 43.072 40.4265 43.4382 40.9381C43.8045 41.4497 44 42.0512 44 42.6665C44 43.4916 43.6488 44.2829 43.0237 44.8664C42.3986 45.4498 41.5507 45.7776 40.6667 45.7776ZM49 42.6665C49 42.8728 48.9122 43.0706 48.7559 43.2165C48.5997 43.3623 48.3877 43.4443 48.1667 43.4443H45.5917C45.6917 42.93 45.6917 42.403 45.5917 41.8887H49V42.6665ZM49 40.3332H44.9917C44.554 39.6238 43.9238 39.0346 43.1645 38.625C42.4053 38.2153 41.5437 37.9996 40.6667 37.9996C39.7897 37.9996 38.9281 38.2153 38.1688 38.625C37.4095 39.0346 36.7793 39.6238 36.3417 40.3332H32.3333V26.3333H34V30.9999C34.002 31.6182 34.266 32.2106 34.7344 32.6478C35.2028 33.085 35.8376 33.3314 36.5 33.3332H44.8333C45.9384 33.3332 46.9982 33.7429 47.7796 34.4722C48.561 35.2015 49 36.1907 49 37.2221V40.3332Z" fill="#E1CFC6"/>
<path d="M36.5 35.6665H38.1667C38.3877 35.6665 38.5997 35.5846 38.7559 35.4387C38.9122 35.2928 39 35.095 39 34.8887C39 34.6825 38.9122 34.4846 38.7559 34.3388C38.5997 34.1929 38.3877 34.111 38.1667 34.111H36.5C36.279 34.111 36.067 34.1929 35.9108 34.3388C35.7545 34.4846 35.6667 34.6825 35.6667 34.8887C35.6667 35.095 35.7545 35.2928 35.9108 35.4387C36.067 35.5846 36.279 35.6665 36.5 35.6665Z" fill="#E1CFC6"/>
<path d="M16.5 8.44447C16.9945 8.44447 17.4778 8.30762 17.8889 8.05123C18.3 7.79485 18.6205 7.43043 18.8097 7.00407C18.9989 6.57772 19.0484 6.10856 18.952 5.65594C18.8555 5.20332 18.6174 4.78757 18.2678 4.46125C17.9181 4.13493 17.4727 3.9127 16.9877 3.82267C16.5028 3.73264 16.0001 3.77884 15.5433 3.95545C15.0865 4.13205 14.696 4.43112 14.4213 4.81483C14.1466 5.19854 14 5.64966 14 6.11115C14 6.72999 14.2634 7.32347 14.7322 7.76106C15.2011 8.19864 15.837 8.44447 16.5 8.44447ZM16.5 5.33338C16.6648 5.33338 16.8259 5.37899 16.963 5.46446C17.1 5.54992 17.2068 5.67139 17.2699 5.81351C17.333 5.95563 17.3495 6.11201 17.3173 6.26289C17.2852 6.41376 17.2058 6.55235 17.0893 6.66112C16.9727 6.76989 16.8242 6.84397 16.6626 6.87398C16.5009 6.90399 16.3334 6.88859 16.1811 6.82972C16.0288 6.77085 15.8987 6.67116 15.8071 6.54326C15.7155 6.41535 15.6667 6.26498 15.6667 6.11115C15.6667 5.90487 15.7545 5.70704 15.9107 5.56118C16.067 5.41532 16.279 5.33338 16.5 5.33338Z" fill="#E1CFC6"/>
</svg>
